<?xml version="1.0" encoding="iso-8859-1"?>
<!-- Generator: Adobe Illustrator 18.0.0, SVG Export Plug-In . SVG Version: 6.00 Build 0)  -->
<!DOCTYPE svg PUBLIC "-//W3C//DTD SVG 1.1//EN" "http://www.w3.org/Graphics/SVG/1.1/DTD/svg11.dtd">
<svg version="1.1" id="Capa_1" xmlns="http://www.w3.org/2000/svg" xmlns:xlink="http://www.w3.org/1999/xlink" x="0px" y="0px"
	 viewBox="0 0 323.218 323.218" style="enable-background:new 0 0 323.218 323.218;" xml:space="preserve">
<g>
	<path d="M192.458,179.417l-30.377,3.471c-10.138,1.16-19.584-5.002-22.699-14.587c-4.644,1.239-5.032,1.333-6.976,1.298
		l0.006,140.014c0,7.514,6.091,13.605,13.604,13.605c7.514,0,13.605-6.091,13.605-13.605c0-9.445,0-87.188,0-105.729
		c0-1.665,1.349-3.014,3.014-3.014c1.58,0,2.86,1.28,2.86,2.86c0,18.25,0,96.393,0,105.883c0,7.514,6.091,13.605,13.605,13.605
		c7.514,0,13.604-6.091,13.604-13.605L192.458,179.417z"/>
	<path d="M104.816,202.207c-0.031,6.261,5.019,11.362,11.28,11.393c0.02,0,0.038,0,0.058,0c6.234,0,11.305-5.038,11.336-11.28
		l0.172-34.283l-22.633-8.155L104.816,202.207z"/>
	<path d="M162.556,84.732c12.81,0,23.219-10.253,23.484-23h-46.968C139.337,74.479,149.746,84.732,162.556,84.732z"/>
	<path d="M129.563,38.347c2.636,2.016,5.921,3.226,9.496,3.226v10.662h46.993V41.573c3.575,0,6.86-1.211,9.496-3.226
		c3.745-2.863,6.171-7.363,6.171-12.441c0-8.653-7.014-15.667-15.667-15.667c-3.1,0-5.982,0.912-8.415,2.466
		C176.253,5.47,169.899,0,162.259,0c-7.525,0-13.806,5.308-15.316,12.383c-2.318-1.354-5.006-2.144-7.884-2.144
		c-8.653,0-15.667,7.014-15.667,15.667C123.393,30.984,125.819,35.484,129.563,38.347z"/>
	<path d="M157.239,140.49l7.595-0.868v-30.491l-26.824,6.234v42.989l0.604-0.14C140.13,149.05,147.562,141.596,157.239,140.49z"/>
	<polygon points="103.153,148.578 128.01,157.533 128.01,114.907 103.153,105.952 	"/>
	<path d="M219.878,118.916c-0.074-14.719-12.109-26.693-26.829-26.693h-60.984c-6.937,0-13.276,2.661-18.05,7.013l19.301,6.953
		l35.386-8.223c3.089-0.714,6.132,1.612,6.132,4.87c0,20.05,0,15.489,0,35.643l17.624-2.014v-21.568
		c3.143,0,4.734,1.933,4.746,4.134c0.119,23.545,0.091,18.112,0.136,26.942l-38.966,4.453c-6.221,0.711-10.688,6.331-9.977,12.551
		c0.711,6.218,6.325,10.687,12.551,9.977l49.066-5.607c5.577-0.637,10.08-5.418,10.05-11.32
		C219.998,142.876,219.948,132.964,219.878,118.916z"/>
</g>
<g>
</g>
<g>
</g>
<g>
</g>
<g>
</g>
<g>
</g>
<g>
</g>
<g>
</g>
<g>
</g>
<g>
</g>
<g>
</g>
<g>
</g>
<g>
</g>
<g>
</g>
<g>
</g>
<g>
</g>
</svg>
