<?xml version="1.0" encoding="iso-8859-1"?>
<!-- Generator: Adobe Illustrator 18.0.0, SVG Export Plug-In . SVG Version: 6.00 Build 0)  -->
<!DOCTYPE svg PUBLIC "-//W3C//DTD SVG 1.1//EN" "http://www.w3.org/Graphics/SVG/1.1/DTD/svg11.dtd">
<svg version="1.1" id="Capa_1" xmlns="http://www.w3.org/2000/svg" xmlns:xlink="http://www.w3.org/1999/xlink" x="0px" y="0px"
	 viewBox="0 0 323.218 323.218" style="enable-background:new 0 0 323.218 323.218;" xml:space="preserve">
<g>
	<path d="M218.931,118.917c-0.074-14.721-12.109-26.695-26.829-26.695h-16.963l-25.533,17.152V191.8c0,2.505-2.03,4.535-4.535,4.535
		c-2.505,0-4.535-2.03-4.535-4.535v-84.843c0-1.511,0.752-2.922,2.007-3.765l16.33-10.971h-27.755
		c-14.72,0-26.755,11.975-26.829,26.695l-0.419,83.29c-0.031,6.261,5.019,11.362,11.28,11.393c0.02,0,0.038,0,0.058,0
		c6.234,0,11.305-5.038,11.336-11.28l0.419-83.29c0.007-1.241,1.016-2.242,2.256-2.238c1.24,0.003,2.243,1.01,2.243,2.25
		l0.005,190.571c0,7.514,6.091,13.604,13.604,13.604c7.514,0,13.605-6.091,13.605-13.604V203.807c0-1.622,1.315-2.937,2.937-2.937
		s2.937,1.315,2.937,2.937v105.807c0,7.514,6.091,13.604,13.605,13.604s13.604-6.091,13.604-13.604
		c0-50.959-0.234-137.761-0.246-190.57c0-1.308,1.058-2.369,2.366-2.373c1.308-0.003,2.372,1.052,2.379,2.36l0.418,83.29
		c0.031,6.242,5.101,11.28,11.336,11.28c0.019,0,0.039,0,0.058,0c6.262-0.031,11.312-5.133,11.28-11.393L218.931,118.917z
		 M161.313,187.074c-2.505,0-4.535-2.03-4.535-4.535c0-2.504,2.03-4.535,4.535-4.535c2.505,0,4.535,2.03,4.535,4.535
		C165.848,185.044,163.817,187.074,161.313,187.074z M161.313,156.086c-2.505,0-4.535-2.03-4.535-4.535
		c0-2.505,2.03-4.535,4.535-4.535c2.505,0,4.535,2.03,4.535,4.535C165.848,154.056,163.817,156.086,161.313,156.086z
		 M161.313,125.098c-2.505,0-4.535-2.03-4.535-4.535c0-2.504,2.03-4.535,4.535-4.535c2.505,0,4.535,2.03,4.535,4.535
		C165.848,123.067,163.817,125.098,161.313,125.098z M180.359,187.074c-2.505,0-4.535-2.03-4.535-4.535
		c0-2.504,2.03-4.535,4.535-4.535c2.505,0,4.535,2.03,4.535,4.535C184.894,185.044,182.864,187.074,180.359,187.074z
		 M180.359,156.086c-2.505,0-4.535-2.03-4.535-4.535c0-2.505,2.03-4.535,4.535-4.535c2.505,0,4.535,2.03,4.535,4.535
		C184.894,154.056,182.864,156.086,180.359,156.086z M180.359,125.098c-2.505,0-4.535-2.03-4.535-4.535
		c0-2.504,2.03-4.535,4.535-4.535c2.505,0,4.535,2.03,4.535,4.535C184.894,123.067,182.864,125.098,180.359,125.098z"/>
	<path d="M161.609,84.732c12.811,0,23.219-10.254,23.484-23.001h-46.968C138.39,74.479,148.799,84.732,161.609,84.732z"/>
	<path d="M128.617,38.347c2.636,2.016,5.921,3.227,9.496,3.227v10.662h46.993V41.574c3.575,0,6.86-1.211,9.496-3.227
		c3.745-2.863,6.171-7.363,6.171-12.44c0-8.653-7.014-15.667-15.667-15.667c-3.1,0-5.982,0.912-8.415,2.466
		C175.306,5.47,168.952,0,161.313,0c-7.526,0-13.806,5.308-15.316,12.383c-2.318-1.354-5.006-2.144-7.884-2.144
		c-8.652,0-15.667,7.014-15.667,15.667C122.446,30.984,124.872,35.484,128.617,38.347z"/>
</g>
<g>
</g>
<g>
</g>
<g>
</g>
<g>
</g>
<g>
</g>
<g>
</g>
<g>
</g>
<g>
</g>
<g>
</g>
<g>
</g>
<g>
</g>
<g>
</g>
<g>
</g>
<g>
</g>
<g>
</g>
</svg>
